# xmcd
#
# Track frame offsets: 
#        150
#        28965
#        41423
#        56893
#        75384
#        94529
#        121024
#        145461
#        170404
#        193632
#        204402
#
# Disc length: 2919 seconds
#
# Revision: 0
# Processed by: cddbd v1.5.2PL0 Copyright (c) Steve Scherf et al.
# Submitted via: ExactAudioCopyFreeDBPlugin 1.0
#
DISCID=900b650b
DTITLE=Tony Vega Band - Dog Gone Shame
DYEAR=2010
DGENRE=Blues
TTITLE0=Dog Gone Shame
TTITLE1=It Ain't Easy
TTITLE2=Down In New Orleans
TTITLE3=Justine
TTITLE4=Shake Them Blues
TTITLE5=So Alive
TTITLE6=Shake 'em On Down
TTITLE7=Edgar Poe Blues
TTITLE8=Glorybaby
TTITLE9=Flyfishin'
TTITLE10=Bonus Track
EXTD=
EXTT0=
EXTT1=
EXTT2=
EXTT3=
EXTT4=
EXTT5=
EXTT6=
EXTT7=
EXTT8=
EXTT9=
EXTT10=
PLAYORDER=
